<?xml version="1.0" standalone="no"?>
<!DOCTYPE svg PUBLIC "-//W3C//DTD SVG 20010904//EN"
 "http://www.w3.org/TR/2001/REC-SVG-20010904/DTD/svg10.dtd">
<svg version="1.0" xmlns="http://www.w3.org/2000/svg"
 width="64.000000pt" height="64.000000pt" viewBox="0 0 64.000000 64.000000"
 preserveAspectRatio="xMidYMid meet">

<g transform="translate(0.000000,64.000000) scale(0.100000,-0.100000)"
fill="#000000" stroke="none">
<path d="M25 525 c-25 -24 -25 -26 -25 -205 0 -179 0 -181 25 -205 l24 -25
271 0 271 0 24 25 c25 24 25 26 25 205 0 179 0 181 -25 205 l-24 25 -271 0
-271 0 -24 -25z m509 -33 c-5 -5 -55 -44 -111 -87 l-103 -78 -102 78 c-57 43
-107 82 -112 87 -6 4 91 8 214 8 123 0 220 -4 214 -8z m-347 -127 c67 -52 127
-95 133 -95 6 0 66 43 133 95 67 52 125 95 130 95 8 0 10 -281 1 -304 -5 -14
-38 -16 -264 -16 -226 0 -259 2 -264 16 -9 23 -7 304 2 304 4 0 62 -43 129
-95z"/>
</g>
</svg>
