<?xml version="1.0" standalone="no"?>
<!DOCTYPE svg PUBLIC "-//W3C//DTD SVG 20010904//EN"
 "http://www.w3.org/TR/2001/REC-SVG-20010904/DTD/svg10.dtd">
<svg version="1.0" xmlns="http://www.w3.org/2000/svg"
 width="512.000000pt" height="512.000000pt" viewBox="0 0 512.000000 512.000000"
 preserveAspectRatio="xMidYMid meet">

<g transform="translate(0.000000,512.000000) scale(0.100000,-0.100000)"
fill="#000000" stroke="none">
<path d="M600 3915 l0 -1205 -150 0 -150 0 0 225 0 225 -150 0 -150 0 0 -600
0 -600 150 0 150 0 0 225 0 225 150 0 150 0 0 -1205 0 -1205 1960 0 1960 0 0
1205 0 1205 150 0 150 0 0 -225 0 -225 150 0 150 0 0 600 0 600 -150 0 -150 0
0 -225 0 -225 -150 0 -150 0 0 713 0 712 -493 493 -492 492 -1468 0 -1467 0 0
-1205z m2720 455 l0 -450 450 0 450 0 0 -605 0 -605 -755 0 -755 0 0 150 0
150 225 0 225 0 0 150 0 150 -600 0 -600 0 0 -150 0 -150 225 0 225 0 0 -150
0 -150 -755 0 -755 0 0 1055 0 1055 1210 0 1210 0 0 -450z m495 40 l190 -190
-193 0 -192 0 0 190 c0 105 1 190 3 190 1 0 88 -85 192 -190z m-1405 -2300 l0
-300 150 0 150 0 0 300 0 300 755 0 755 0 0 -1055 0 -1055 -1660 0 -1660 0 0
1055 0 1055 755 0 755 0 0 -300z"/>
<path d="M1200 4370 l0 -150 910 0 910 0 0 150 0 150 -910 0 -910 0 0 -150z"/>
<path d="M1200 3770 l0 -150 150 0 150 0 0 150 0 150 -150 0 -150 0 0 -150z"/>
<path d="M1800 3770 l0 -150 610 0 610 0 0 150 0 150 -610 0 -610 0 0 -150z"/>
<path d="M1200 1350 l0 -150 910 0 910 0 0 150 0 150 -910 0 -910 0 0 -150z"/>
<path d="M3320 1350 l0 -150 300 0 300 0 0 150 0 150 -300 0 -300 0 0 -150z"/>
<path d="M1200 750 l0 -150 150 0 150 0 0 150 0 150 -150 0 -150 0 0 -150z"/>
<path d="M1800 750 l0 -150 1060 0 1060 0 0 150 0 150 -1060 0 -1060 0 0 -150z"/>
</g>
</svg>
