<?xml version="1.0" standalone="no"?>
<!DOCTYPE svg PUBLIC "-//W3C//DTD SVG 20010904//EN"
 "http://www.w3.org/TR/2001/REC-SVG-20010904/DTD/svg10.dtd">
<svg version="1.0" xmlns="http://www.w3.org/2000/svg"
 width="512.000000pt" height="512.000000pt" viewBox="0 0 512.000000 512.000000"
 preserveAspectRatio="xMidYMid meet">

<g transform="translate(0.000000,512.000000) scale(0.100000,-0.100000)"
fill="#000000" stroke="none">
<path d="M2370 5109 c-544 -61 -1038 -406 -1284 -896 -196 -393 -229 -846 -90
-1262 80 -240 192 -420 408 -655 201 -218 271 -329 342 -541 56 -169 64 -250
64 -688 0 -316 3 -402 16 -465 83 -404 482 -669 881 -586 99 20 162 45 248 99
121 75 231 201 291 334 55 123 56 133 64 631 8 498 9 512 66 685 63 191 146
320 336 526 77 85 163 186 190 224 588 835 302 1978 -609 2434 -106 53 -203
88 -333 120 -198 48 -395 62 -590 40z m385 -304 c148 -22 266 -59 400 -125
377 -183 638 -518 727 -933 29 -136 31 -399 5 -529 -56 -277 -169 -483 -395
-721 -70 -74 -155 -173 -189 -221 -129 -182 -234 -432 -270 -648 l-17 -108
-456 0 -456 0 -17 108 c-34 200 -125 430 -239 602 -68 102 -104 145 -235 282
-210 221 -325 435 -380 706 -26 130 -24 393 5 529 119 556 557 970 1117 1057
121 19 278 19 400 1z m255 -3840 c0 -150 -5 -276 -11 -307 -38 -178 -185 -319
-368 -350 -232 -40 -460 117 -510 350 -6 32 -11 156 -11 307 l0 255 450 0 450
0 0 -255z"/>
<path d="M2455 4206 c-84 -21 -147 -57 -211 -121 -98 -97 -134 -197 -134 -370
l0 -95 150 0 150 0 0 90 c0 110 18 154 78 188 49 27 91 28 142 2 68 -35 99
-128 65 -193 -8 -15 -50 -61 -94 -102 -136 -129 -190 -265 -191 -477 l0 -108
149 0 149 0 4 118 c5 146 18 174 137 292 99 97 134 159 153 269 24 141 -22
281 -127 387 -112 113 -269 158 -420 120z"/>
<path d="M2410 2570 l0 -150 150 0 150 0 0 150 0 150 -150 0 -150 0 0 -150z"/>
<path d="M260 4565 l-105 -105 223 -223 222 -222 107 108 108 107 -220 220
c-121 121 -222 220 -225 220 -3 0 -52 -47 -110 -105z"/>
<path d="M4525 4450 l-220 -220 108 -107 107 -108 222 222 223 223 -105 105
c-58 58 -107 105 -110 105 -3 0 -104 -99 -225 -220z"/>
<path d="M0 3470 l0 -150 305 0 305 0 0 150 0 150 -305 0 -305 0 0 -150z"/>
<path d="M4510 3470 l0 -150 305 0 305 0 0 150 0 150 -305 0 -305 0 0 -150z"/>
<path d="M377 2702 l-217 -217 108 -108 107 -107 220 220 220 220 -105 105
c-58 58 -107 105 -110 105 -3 0 -103 -98 -223 -218z"/>
<path d="M4410 2815 l-105 -105 220 -220 220 -220 107 107 108 108 -217 217
c-120 120 -220 218 -223 218 -3 0 -52 -47 -110 -105z"/>
</g>
</svg>
